<svg width="140" height="140" viewBox="0 0 140 140" fill="none" xmlns="http://www.w3.org/2000/svg">
  <rect x="20" y="48.6982" width="44.958" height="31.2751" rx="5.21252" transform="rotate(-9.85934 20 48.6982)" fill="#006EFA"/>
  <path d="M48.6282 58.6734C49.3858 58.9513 49.5585 59.945 48.9391 60.4622L44.2934 64.341C43.674 64.8581 42.727 64.5108 42.5888 63.7158L41.5525 57.7532C41.4144 56.9582 42.1887 56.3117 42.9462 56.5895L48.6282 58.6734Z" fill="white"/>
  <path d="M29.9473 105.636C20.6621 106.91 20.0967 125.366 10.2462 125.366H129.309C118.174 125.366 121.625 98.6137 109.526 97.6023C100.833 96.8757 98.1685 103.267 89.4786 102.507C78.0351 101.507 81.2585 79.9638 69.7776 79.5849C56.4663 79.1456 63.1912 108.341 50.0766 110.663C42.0453 112.085 38.0276 104.526 29.9473 105.636Z" fill="url(#paint0_linear_16_5025)"/>
  <mask id="mask0_16_5025" style="mask-type:alpha" maskUnits="userSpaceOnUse" x="10" y="79" width="120" height="46">
    <path d="M29.9473 105.636C20.6621 106.91 20.0967 124.826 10.2462 124.826H129.309C118.174 124.826 121.625 98.6139 109.526 97.6025C100.833 96.8759 98.1685 103.267 89.4786 102.508C78.0351 101.507 81.2585 79.9639 69.7776 79.5851C56.4663 79.1458 63.1912 108.341 50.0766 110.663C42.0453 112.085 38.0276 104.527 29.9473 105.636Z" fill="url(#paint1_linear_16_5025)"/>
  </mask>
  <g mask="url(#mask0_16_5025)">
  </g>
  <rect x="6.82007" y="124.826" width="125.915" height="2" rx="1" fill="#282828"/>
  <circle cx="98.1401" cy="125.735" r="6" fill="#006EFA"/>
  <path d="M87.0299 26.2884C86.7697 26.8609 85.9564 26.8609 85.6962 26.2884L84.4417 23.5287L81.682 22.2743C81.1095 22.014 81.1095 21.2007 81.682 20.9405L84.4417 19.6861L85.6962 16.9264C85.9564 16.3538 86.7697 16.3538 87.0299 16.9264L88.2843 19.6861L91.044 20.9405C91.6166 21.2007 91.6166 22.014 91.044 22.2743L88.2843 23.5287L87.0299 26.2884Z" fill="#41BEFF"/>
  <path d="M74.7336 37.355C74.4734 37.9276 73.6601 37.9276 73.3999 37.355L70.9927 32.0592L65.6969 29.652C65.1243 29.3918 65.1243 28.5785 65.6969 28.3183L70.9927 25.9111L73.3999 20.6153C73.6601 20.0427 74.4734 20.0427 74.7336 20.6153L77.1408 25.9111L82.4366 28.3183C83.0092 28.5785 83.0092 29.3918 82.4366 29.652L77.1408 32.0592L74.7336 37.355Z" fill="#41BEFF"/>
  <path d="M92.9047 32.7762C95.0828 34.083 97.5086 39.3726 97.8957 42.847C98.227 45.8206 97.81 48.8676 97.1351 51.7597C96.2 55.7671 94.6962 59.747 91.9178 62.8565C89.6769 65.3645 84.5793 69.2 81.0389 66.8227C79.3749 65.7054 79.1559 63.5164 79.5563 61.7006C80.6081 56.9309 84.4473 52.9012 88.251 50.1105C93.8035 46.0366 101.664 42.871 108.672 44.115C114.288 45.1117 117.238 49.8335 117.198 55.2929C117.16 60.4315 114.748 64.8754 110.529 67.7637C109.047 68.7781 107.4 69.6453 105.679 70.1807C104.929 70.4141 103.562 70.8263 102.792 70.3437C102.013 69.8556 102.988 68.8075 103.345 68.4794C104.803 67.1358 106.751 66.2909 108.609 65.6893C110.971 64.9246 113.48 64.5224 115.967 64.5927C118.278 64.6579 121.379 65.0931 122.843 67.1645C125.284 70.6196 122.296 75.7388 119.593 78.0282" stroke="#41BEFF" stroke-width="2" stroke-linecap="round"/>
  <defs>
    <linearGradient id="paint0_linear_16_5025" x1="138.754" y1="105.831" x2="9.74951" y2="105.831" gradientUnits="userSpaceOnUse">
      <stop stop-color="#006EFA"/>
      <stop offset="0.182292" stop-color="#41BEFF"/>
      <stop offset="0.317708" stop-color="#3CD2AF"/>
      <stop offset="0.447917" stop-color="#FFCD00"/>
      <stop offset="0.515625" stop-color="#FFCD00"/>
      <stop offset="0.651042" stop-color="#FA374B"/>
    </linearGradient>
    <linearGradient id="paint1_linear_16_5025" x1="138.754" y1="105.521" x2="9.74951" y2="105.521" gradientUnits="userSpaceOnUse">
      <stop stop-color="#006EFA"/>
      <stop offset="0.182292" stop-color="#41BEFF"/>
      <stop offset="0.317708" stop-color="#3CD2AF"/>
      <stop offset="0.447917" stop-color="#FFCD00"/>
      <stop offset="0.515625" stop-color="#FFCD00"/>
      <stop offset="0.651042" stop-color="#FA374B"/>
    </linearGradient>
  </defs>
</svg>
