<svg width="140" height="140" viewBox="0 0 140 140" fill="none" xmlns="http://www.w3.org/2000/svg">
<rect x="20" y="48.6982" width="44.958" height="31.2751" rx="5.21252" transform="rotate(-9.85934 20 48.6982)" fill="#006EFA"/>
<path d="M48.6281 58.6732C49.3857 58.9511 49.5584 59.9449 48.939 60.462L44.2934 64.3408C43.6739 64.858 42.7269 64.5107 42.5888 63.7156L41.5525 57.753C41.4143 56.958 42.1886 56.3115 42.9462 56.5894L48.6281 58.6732Z" fill="white"/>
<path d="M29.9473 105.636C20.6621 106.91 20.0967 125.366 10.2462 125.366H129.309C118.174 125.366 121.625 98.6137 109.526 97.6023C100.833 96.8757 98.1685 103.267 89.4786 102.507C78.0351 101.507 81.2585 79.9638 69.7776 79.5849C56.4663 79.1456 63.1912 108.341 50.0766 110.663C42.0453 112.085 38.0276 104.526 29.9473 105.636Z" fill="url(#paint0_linear_1_2836)"/>
<mask id="mask0_1_2836" style="mask-type:alpha" maskUnits="userSpaceOnUse" x="10" y="79" width="120" height="46">
<path d="M29.9473 105.636C20.6621 106.91 20.0967 124.826 10.2462 124.826H129.309C118.174 124.826 121.625 98.6138 109.526 97.6024C100.833 96.8758 98.1685 103.267 89.4786 102.507C78.0351 101.507 81.2585 79.9639 69.7776 79.585C56.4663 79.1457 63.1912 108.341 50.0766 110.663C42.0453 112.085 38.0276 104.526 29.9473 105.636Z" fill="url(#paint1_linear_1_2836)"/>
</mask>
<g mask="url(#mask0_1_2836)">
<g opacity="0.5" filter="url(#filter0_f_1_2836)">
<ellipse cx="41.181" cy="94.4303" rx="26.6179" ry="31.3844" transform="rotate(65.9857 41.181 94.4303)" fill="white"/>
</g>
</g>
<rect x="6.82001" y="124.826" width="125.915" height="2" rx="1" fill="#282828"/>
<circle cx="98.14" cy="125.735" r="6" fill="#006EFA"/>
<path d="M87.0298 26.2884C86.7696 26.861 85.9563 26.861 85.6961 26.2884L84.4417 23.5287L81.682 22.2743C81.1094 22.0141 81.1094 21.2008 81.682 20.9405L84.4417 19.6861L85.6961 16.9264C85.9563 16.3539 86.7696 16.3539 87.0298 16.9264L88.2842 19.6861L91.0439 20.9405C91.6165 21.2008 91.6165 22.0141 91.0439 22.2743L88.2842 23.5287L87.0298 26.2884Z" fill="#41BEFF"/>
<path d="M74.7336 37.3551C74.4733 37.9276 73.66 37.9276 73.3998 37.3551L70.9926 32.0593L65.6968 29.6521C65.1242 29.3918 65.1242 28.5786 65.6968 28.3183L70.9926 25.9111L73.3998 20.6153C73.66 20.0428 74.4733 20.0428 74.7336 20.6153L77.1407 25.9111L82.4365 28.3183C83.0091 28.5786 83.0091 29.3918 82.4366 29.6521L77.1407 32.0593L74.7336 37.3551Z" fill="#41BEFF"/>
<path d="M92.9048 32.7762C95.0828 34.083 97.5087 39.3726 97.8958 42.847C98.2271 45.8206 97.8101 48.8676 97.1352 51.7597C96.2001 55.7671 94.6963 59.747 91.9179 62.8565C89.677 65.3645 84.5794 69.2 81.039 66.8227C79.375 65.7054 79.156 63.5164 79.5564 61.7006C80.6082 56.9309 84.4474 52.9012 88.2511 50.1105C93.8035 46.0366 101.664 42.871 108.672 44.115C114.288 45.1117 117.238 49.8335 117.198 55.2929C117.16 60.4315 114.748 64.8754 110.529 67.7637C109.047 68.7781 107.4 69.6453 105.68 70.1807C104.929 70.4141 103.562 70.8263 102.792 70.3437C102.013 69.8556 102.989 68.8075 103.345 68.4794C104.803 67.1358 106.751 66.2909 108.609 65.6893C110.971 64.9246 113.48 64.5224 115.967 64.5927C118.278 64.6579 121.379 65.0931 122.843 67.1645C125.284 70.6196 122.296 75.7388 119.593 78.0282" stroke="#41BEFF" stroke-width="2" stroke-linecap="round"/>
<defs>
<filter id="filter0_f_1_2836" x="-3.78148" y="52.6522" width="89.9249" height="83.5561" filterUnits="userSpaceOnUse" color-interpolation-filters="sRGB">
<feFlood flood-opacity="0" result="BackgroundImageFix"/>
<feBlend mode="normal" in="SourceGraphic" in2="BackgroundImageFix" result="shape"/>
<feGaussianBlur stdDeviation="7.15395" result="effect1_foregroundBlur_1_2836"/>
</filter>
<linearGradient id="paint0_linear_1_2836" x1="138.754" y1="105.831" x2="9.74951" y2="105.831" gradientUnits="userSpaceOnUse">
<stop stop-color="#006EFA"/>
<stop offset="0.182292" stop-color="#41BEFF"/>
<stop offset="0.317708" stop-color="#3CD2AF"/>
<stop offset="0.447917" stop-color="#FFCD00"/>
<stop offset="0.515625" stop-color="#FFCD00"/>
<stop offset="0.651042" stop-color="#FA374B"/>
</linearGradient>
<linearGradient id="paint1_linear_1_2836" x1="138.754" y1="105.521" x2="9.74951" y2="105.521" gradientUnits="userSpaceOnUse">
<stop stop-color="#006EFA"/>
<stop offset="0.182292" stop-color="#41BEFF"/>
<stop offset="0.317708" stop-color="#3CD2AF"/>
<stop offset="0.447917" stop-color="#FFCD00"/>
<stop offset="0.515625" stop-color="#FFCD00"/>
<stop offset="0.651042" stop-color="#FA374B"/>
</linearGradient>
</defs>
</svg>
